<svg xmlns="http://www.w3.org/2000/svg" version="1.1" xmlns:xlink="http://www.w3.org/1999/xlink" xmlns:svgjs="http://svgjs.dev/svgjs" width="1000" height="1000" viewBox="0 0 1000 1000"><rect width="1000" height="1000" fill="#ffffff"></rect><g transform="matrix(0.7,0,0,0.7,149.57576360103354,282.1265587044535)"><svg viewBox="0 0 396 247" data-background-color="#ffffff" preserveAspectRatio="xMidYMid meet" height="623" width="1000" xmlns="http://www.w3.org/2000/svg" xmlns:xlink="http://www.w3.org/1999/xlink"><g id="tight-bounds" transform="matrix(1,0,0,1,0.23999659141531993,-0.09999999999999432)"><svg viewBox="0 0 395.52 247.2" height="247.2" width="395.52"><g><svg></svg></g><g><svg viewBox="0 0 395.52 247.2" height="247.2" width="395.52"><g><g><path xmlns="http://www.w3.org/2000/svg" d="M284.725 0h62.956l-12.326 79.314-60.58 0zM309.267 247.2h-85.72l-11.397-79.314 43.511 0 4.166 30.585 3.837-30.585 57.928 0zM197.226 64.023l-2.375 15.291-43.141 0 12.082-79.314h69.003l10.803 79.314-44.174 0zM168.772 247.2h-83.586l-11.983-79.314 57.232 0 3.124 30.585 4.659-30.585 42.875 0zM47.839 0h65.446l8.102 79.314h-61.565z" fill="#31c48d" fill-rule="nonzero" stroke="none" stroke-width="1" stroke-linecap="butt" stroke-linejoin="miter" stroke-miterlimit="10" stroke-dasharray="" stroke-dashoffset="0" font-family="none" font-weight="none" font-size="none" text-anchor="none" style="mix-blend-mode: normal" data-fill-palette-color="tertiary"></path></g></g><g transform="matrix(1,0,0,1,0,85.6014863666814)"><svg viewBox="0 0 395.52 75.9970272666372" height="75.9970272666372" width="395.52"><g><svg viewBox="0 0 395.52 75.9970272666372" height="75.9970272666372" width="395.52"><g><svg viewBox="0 0 395.52 75.9970272666372" height="75.9970272666372" width="395.52"><g><svg viewBox="0 0 395.52 75.9970272666372" height="75.9970272666372" width="395.52"><g id="textblocktransform"><svg viewBox="0 0 395.52 75.9970272666372" height="75.9970272666372" width="395.52" id="textblock"><g><svg viewBox="0 0 395.52 43.08407123358898" height="43.08407123358898" width="395.52"><g transform="matrix(1,0,0,1,0,0)"><svg width="395.52" viewBox="0 -41 384.6199951171875 41.900001525878906" height="43.08407123358898" data-palette-color="#31c48d"><path d="M29.4-26.65L37.95-26.65 32.55 0 22.15 0 18.95-18.7 15.8 0 5.5 0 0-26.65 8.95-26.65 11.15-6.75 15-26.65 23.45-26.65 26.65-6.75 29.4-26.65ZM64.65-13.75Q64.65-13.45 64.5-10.75L64.5-10.75 48.2-10.75Q48.55-7.7 49.92-6.58 51.3-5.45 53.85-5.45L53.85-5.45Q55.35-5.45 56.82-6.03 58.3-6.6 60.05-7.8L60.05-7.8 63.65-2.9Q61.55-1.15 58.85-0.13 56.15 0.9 53 0.9L53 0.9Q46.2 0.9 42.67-2.93 39.15-6.75 39.15-13.2L39.15-13.2Q39.15-17.25 40.62-20.5 42.1-23.75 45-25.65 47.9-27.55 52-27.55L52-27.55Q57.85-27.55 61.25-23.93 64.65-20.3 64.65-13.75L64.65-13.75ZM55.9-15.95L55.9-16.25Q55.85-18.9 55-20.35 54.15-21.8 52.15-21.8L52.15-21.8Q50.3-21.8 49.35-20.5 48.4-19.2 48.15-15.95L48.15-15.95 55.9-15.95ZM90.35-8.2Q90.35-6.75 90.72-6.05 91.1-5.35 92.05-5L92.05-5 90.25 0.75Q87.7 0.55 86.07-0.3 84.45-1.15 83.45-3L83.45-3Q80.9 0.9 75.4 0.9L75.4 0.9Q71.45 0.9 69.07-1.43 66.7-3.75 66.7-7.45L66.7-7.45Q66.7-11.85 69.95-14.2 73.2-16.55 79.35-16.55L79.35-16.55 81.65-16.55 81.65-17.45Q81.65-19.6 80.75-20.38 79.85-21.15 77.5-21.15L77.5-21.15Q76.25-21.15 74.37-20.78 72.5-20.4 70.55-19.75L70.55-19.75 68.6-25.5Q71-26.5 73.75-27.03 76.5-27.55 78.85-27.55L78.85-27.55Q84.85-27.55 87.6-25.18 90.35-22.8 90.35-17.9L90.35-17.9 90.35-8.2ZM78.1-5.35Q79.2-5.35 80.12-5.93 81.05-6.5 81.65-7.5L81.65-7.5 81.65-11.8 80.15-11.8Q77.75-11.8 76.6-10.93 75.45-10.05 75.45-8.3L75.45-8.3Q75.45-6.95 76.15-6.15 76.85-5.35 78.1-5.35L78.1-5.35ZM103.34 0.9Q99.59 0.9 97.54-1.2 95.49-3.3 95.49-7.25L95.49-7.25 95.49-37.15 104.39-38.05 104.39-7.55Q104.39-6.1 105.69-6.1L105.69-6.1Q106.24-6.1 106.84-6.3L106.84-6.3 108.49 0Q106.44 0.9 103.34 0.9L103.34 0.9ZM125.44-6.85L128.39-1.3Q126.84-0.2 124.79 0.35 122.74 0.9 120.79 0.9L120.79 0.9Q111.54 0.9 111.54-9.3L111.54-9.3 111.54-20.55 108.09-20.55 108.09-26.65 111.54-26.65 111.54-32.3 120.44-33.35 120.44-26.65 126.49-26.65 125.59-20.55 120.44-20.55 120.44-9.4Q120.44-7.6 121.02-6.85 121.59-6.1 122.74-6.1L122.74-6.1Q124.14-6.1 125.44-6.85L125.44-6.85ZM146.84-27.55Q150.24-27.55 152.19-25.43 154.14-23.3 154.14-19.55L154.14-19.55 154.14 0 145.24 0 145.24-17.95Q145.24-19.7 144.71-20.38 144.19-21.05 143.19-21.05L143.19-21.05Q141.14-21.05 139.24-18L139.24-18 139.24 0 130.34 0 130.34-37.15 139.24-38.05 139.24-24.05Q140.89-25.85 142.74-26.7 144.59-27.55 146.84-27.55L146.84-27.55ZM173.84-6.85L176.79-1.3Q175.24-0.2 173.19 0.35 171.14 0.9 169.19 0.9L169.19 0.9Q159.94 0.9 159.94-9.3L159.94-9.3 159.94-20.55 156.49-20.55 156.49-26.65 159.94-26.65 159.94-32.3 168.84-33.35 168.84-26.65 174.89-26.65 173.99-20.55 168.84-20.55 168.84-9.4Q168.84-7.6 169.41-6.85 169.99-6.1 171.14-6.1L171.14-6.1Q172.54-6.1 173.84-6.85L173.84-6.85ZM190.73-27.55Q196.98-27.55 200.53-23.8 204.08-20.05 204.08-13.3L204.08-13.3Q204.08-9 202.48-5.8 200.88-2.6 197.86-0.85 194.83 0.9 190.73 0.9L190.73 0.9Q184.48 0.9 180.93-2.85 177.38-6.6 177.38-13.35L177.38-13.35Q177.38-17.65 178.98-20.85 180.58-24.05 183.61-25.8 186.63-27.55 190.73-27.55L190.73-27.55ZM190.73-21.1Q188.58-21.1 187.56-19.23 186.53-17.35 186.53-13.35L186.53-13.35Q186.53-9.2 187.56-7.38 188.58-5.55 190.73-5.55L190.73-5.55Q192.88-5.55 193.91-7.43 194.93-9.3 194.93-13.3L194.93-13.3Q194.93-17.4 193.91-19.25 192.88-21.1 190.73-21.1L190.73-21.1ZM222.68-6.85L225.63-1.3Q224.08-0.2 222.03 0.35 219.98 0.9 218.03 0.9L218.03 0.9Q208.78 0.9 208.78-9.3L208.78-9.3 208.78-20.55 205.33-20.55 205.33-26.65 208.78-26.65 208.78-32.3 217.68-33.35 217.68-26.65 223.73-26.65 222.83-20.55 217.68-20.55 217.68-9.4Q217.68-7.6 218.26-6.85 218.83-6.1 219.98-6.1L219.98-6.1Q221.38-6.1 222.68-6.85L222.68-6.85ZM244.08-27.55Q247.48-27.55 249.43-25.43 251.38-23.3 251.38-19.55L251.38-19.55 251.38 0 242.48 0 242.48-17.95Q242.48-19.7 241.95-20.38 241.43-21.05 240.43-21.05L240.43-21.05Q238.38-21.05 236.48-18L236.48-18 236.48 0 227.58 0 227.58-37.15 236.48-38.05 236.48-24.05Q238.13-25.85 239.98-26.7 241.83-27.55 244.08-27.55L244.08-27.55ZM280.48-13.75Q280.48-13.45 280.33-10.75L280.33-10.75 264.03-10.75Q264.38-7.7 265.75-6.58 267.13-5.45 269.68-5.45L269.68-5.45Q271.18-5.45 272.65-6.03 274.13-6.6 275.88-7.8L275.88-7.8 279.48-2.9Q277.38-1.15 274.68-0.13 271.98 0.9 268.83 0.9L268.83 0.9Q262.03 0.9 258.5-2.93 254.98-6.75 254.98-13.2L254.98-13.2Q254.98-17.25 256.45-20.5 257.93-23.75 260.83-25.65 263.73-27.55 267.83-27.55L267.83-27.55Q273.68-27.55 277.08-23.93 280.48-20.3 280.48-13.75L280.48-13.75ZM271.73-15.95L271.73-16.25Q271.68-18.9 270.83-20.35 269.98-21.8 267.98-21.8L267.98-21.8Q266.13-21.8 265.18-20.5 264.23-19.2 263.98-15.95L263.98-15.95 271.73-15.95ZM310.87-26.65L319.42-26.65 314.02 0 303.62 0 300.42-18.7 297.27 0 286.97 0 281.47-26.65 290.42-26.65 292.62-6.75 296.47-26.65 304.92-26.65 308.12-6.75 310.87-26.65ZM321.97-26.65L330.87-26.65 330.87 0 321.97 0 321.97-26.65ZM326.42-41Q328.67-41 330.1-39.6 331.52-38.2 331.52-36.1L331.52-36.1Q331.52-34 330.1-32.6 328.67-31.2 326.42-31.2L326.42-31.2Q324.17-31.2 322.75-32.6 321.32-34 321.32-36.1L321.32-36.1Q321.32-38.2 322.75-39.6 324.17-41 326.42-41L326.42-41ZM346.12-27.55Q349.02-27.55 351.64-26.65 354.27-25.75 356.12-24.2L356.12-24.2 352.92-19.3Q349.72-21.3 346.47-21.3L346.47-21.3Q345.07-21.3 344.39-20.88 343.72-20.45 343.72-19.7L343.72-19.7Q343.72-19.05 344.07-18.65 344.42-18.25 345.54-17.78 346.67-17.3 349.12-16.55L349.12-16.55Q353.22-15.35 355.17-13.43 357.12-11.5 357.12-8.05L357.12-8.05Q357.12-5.35 355.54-3.33 353.97-1.3 351.19-0.2 348.42 0.9 344.92 0.9L344.92 0.9Q341.52 0.9 338.54-0.18 335.57-1.25 333.52-3.15L333.52-3.15 337.77-7.9Q339.32-6.7 341.09-6 342.87-5.3 344.67-5.3L344.67-5.3Q346.27-5.3 347.14-5.83 348.02-6.35 348.02-7.4L348.02-7.4Q348.02-8.2 347.64-8.65 347.27-9.1 346.22-9.53 345.17-9.95 342.62-10.7L342.62-10.7Q334.87-13 334.87-19.15L334.87-19.15Q334.87-21.5 336.22-23.43 337.57-25.35 340.09-26.45 342.62-27.55 346.12-27.55L346.12-27.55ZM384.62-13.75Q384.62-13.45 384.47-10.75L384.47-10.75 368.17-10.75Q368.51-7.7 369.89-6.58 371.26-5.45 373.81-5.45L373.81-5.45Q375.31-5.45 376.79-6.03 378.26-6.6 380.01-7.8L380.01-7.8 383.62-2.9Q381.51-1.15 378.81-0.13 376.12 0.9 372.97 0.9L372.97 0.9Q366.17 0.9 362.64-2.93 359.12-6.75 359.12-13.2L359.12-13.2Q359.12-17.25 360.59-20.5 362.06-23.75 364.97-25.65 367.87-27.55 371.97-27.55L371.97-27.55Q377.81-27.55 381.22-23.93 384.62-20.3 384.62-13.75L384.62-13.75ZM375.87-15.95L375.87-16.25Q375.81-18.9 374.97-20.35 374.12-21.8 372.12-21.8L372.12-21.8Q370.26-21.8 369.31-20.5 368.37-19.2 368.12-15.95L368.12-15.95 375.87-15.95Z" opacity="1" transform="matrix(1,0,0,1,0,0)" fill="#31c48d" class="undefined-text-0" data-fill-palette-color="primary" id="text-0"></path></svg></g></svg></g><g transform="matrix(1,0,0,1,0,49.371071244279214)"><svg viewBox="0 0 395.52 26.62595602235799" height="26.62595602235799" width="395.52"><g transform="matrix(1,0,0,1,0,0)"><svg width="395.52" viewBox="3.559999942779541 -37.5 711.5499877929688 47.900001525878906" height="26.62595602235799" data-palette-color="#adbfb8"><path d="M25.93-5.05L25.93 0 8.11 0 8.11-5.05 25.93-5.05ZM9.86-35.55L9.86 0 3.56 0 3.56-35.55 9.86-35.55ZM51.29 0.49L51.29 0.49Q47.36 0.49 44.5-1.21 41.65-2.91 40.11-5.8 38.57-8.69 38.57-12.28L38.57-12.28 38.57-13.28Q38.57-17.41 40.13-20.47 41.69-23.54 44.42-25.22 47.14-26.9 50.58-26.9L50.58-26.9Q54.39-26.9 56.9-25.26 59.42-23.61 60.66-20.69 61.91-17.77 61.91-13.94L61.91-13.94 61.91-11.33 41.48-11.33 41.48-15.7 55.93-15.7 55.93-16.16Q55.88-17.7 55.34-19.04 54.81-20.39 53.65-21.22 52.49-22.05 50.56-22.05L50.56-22.05Q48.63-22.05 47.31-20.96 45.99-19.87 45.31-17.91 44.62-15.94 44.62-13.28L44.62-13.28 44.62-12.28Q44.62-10.03 45.45-8.25 46.28-6.47 47.87-5.43 49.46-4.39 51.66-4.39L51.66-4.39Q53.78-4.39 55.43-5.22 57.08-6.05 58.27-7.62L58.27-7.62 61.45-4.44Q60.2-2.56 57.7-1.04 55.2 0.49 51.29 0.49ZM88.22-26.42L88.22-21.95 73.23-21.95 73.23-26.42 88.22-26.42ZM77.48-32.89L83.54-32.89 83.54-7.45Q83.54-6.23 83.88-5.6 84.22-4.98 84.85-4.76 85.49-4.54 86.32-4.54L86.32-4.54Q86.93-4.54 87.49-4.61 88.05-4.69 88.39-4.76L88.39-4.76 88.39-0.1Q87.66 0.15 86.7 0.32 85.73 0.49 84.44 0.49L84.44 0.49Q82.41 0.49 80.84-0.24 79.26-0.98 78.37-2.62 77.48-4.27 77.48-7.01L77.48-7.01 77.48-32.89ZM105.75-37.5L105.75-34.28 105.11-24.78 101.16-24.78 101.18-33.91 101.18-37.5 105.75-37.5ZM132.72-7.2L132.72-7.2Q132.72-8.03 132.29-8.72 131.87-9.4 130.65-9.99 129.43-10.57 127.06-11.06L127.06-11.06Q124.25-11.65 122.11-12.62 119.98-13.6 118.79-15.14 117.61-16.67 117.61-18.9L117.61-18.9Q117.61-21.04 118.84-22.86 120.08-24.68 122.38-25.79 124.69-26.9 127.84-26.9L127.84-26.9Q131.16-26.9 133.55-25.79 135.94-24.68 137.23-22.79 138.51-20.9 138.51-18.51L138.51-18.51 132.45-18.51Q132.45-20.07 131.29-21.25 130.13-22.44 127.81-22.44L127.81-22.44Q126.37-22.44 125.41-21.97 124.45-21.51 123.97-20.78 123.49-20.04 123.49-19.17L123.49-19.17Q123.49-18.31 123.97-17.68 124.45-17.04 125.61-16.55 126.76-16.06 128.86-15.63L128.86-15.63Q131.89-14.99 134.09-14.03 136.29-13.06 137.47-11.49 138.65-9.91 138.65-7.5L138.65-7.5Q138.65-5.18 137.32-3.37 135.99-1.56 133.59-0.54 131.18 0.49 127.91 0.49L127.91 0.49Q124.27 0.49 121.78-0.81 119.29-2.1 118.01-4.11 116.73-6.13 116.73-8.3L116.73-8.3 122.57-8.3Q122.66-6.74 123.46-5.79 124.25-4.83 125.46-4.41 126.67-3.98 127.99-3.98L127.99-3.98Q129.55-3.98 130.59-4.39 131.62-4.81 132.17-5.53 132.72-6.25 132.72-7.2ZM192.16-26.42L197.68-26.42 197.68-0.76Q197.68 2.81 196.14 5.31 194.6 7.81 191.88 9.11 189.16 10.4 185.57 10.4L185.57 10.4Q184.06 10.4 182.21 9.97 180.37 9.55 178.64 8.59 176.9 7.64 175.73 6.1L175.73 6.1 178.56 2.44Q179.98 4.08 181.68 4.87 183.37 5.66 185.25 5.66L185.25 5.66Q188.21 5.66 189.9 4.03 191.6 2.39 191.6-0.66L191.6-0.66 191.6-20.41 192.16-26.42ZM174.24-12.92L174.24-13.43Q174.24-17.43 175.52-20.47 176.8-23.51 179.19-25.21 181.57-26.9 184.84-26.9L184.84-26.9Q187.42-26.9 189.26-25.96 191.09-25.02 192.3-23.28 193.5-21.53 194.2-19.13 194.9-16.72 195.24-13.82L195.24-13.82 195.24-12.4Q194.8-8.64 193.6-5.74 192.41-2.83 190.24-1.17 188.08 0.49 184.79 0.49L184.79 0.49Q181.57 0.49 179.2-1.26 176.83-3 175.54-6.03 174.24-9.06 174.24-12.92L174.24-12.92ZM180.3-13.43L180.3-12.92Q180.3-10.57 180.93-8.65 181.57-6.74 182.9-5.6 184.23-4.47 186.33-4.47L186.33-4.47Q188.38-4.47 189.67-5.33 190.96-6.2 191.69-7.69 192.41-9.18 192.67-11.04L192.67-11.04 192.67-15.16Q192.53-16.63 192.1-17.87 191.67-19.12 190.9-20.02 190.13-20.92 189.01-21.44 187.89-21.95 186.38-21.95L186.38-21.95Q184.28-21.95 182.93-20.81 181.59-19.68 180.94-17.74 180.3-15.8 180.3-13.43L180.3-13.43ZM224.92 0.49L224.92 0.49Q220.99 0.49 218.13-1.21 215.28-2.91 213.74-5.8 212.2-8.69 212.2-12.28L212.2-12.28 212.2-13.28Q212.2-17.41 213.76-20.47 215.33-23.54 218.05-25.22 220.77-26.9 224.21-26.9L224.21-26.9Q228.02-26.9 230.54-25.26 233.05-23.61 234.3-20.69 235.54-17.77 235.54-13.94L235.54-13.94 235.54-11.33 215.11-11.33 215.11-15.7 229.56-15.7 229.56-16.16Q229.51-17.7 228.97-19.04 228.44-20.39 227.28-21.22 226.12-22.05 224.19-22.05L224.19-22.05Q222.26-22.05 220.94-20.96 219.62-19.87 218.94-17.91 218.26-15.94 218.26-13.28L218.26-13.28 218.26-12.28Q218.26-10.03 219.09-8.25 219.92-6.47 221.5-5.43 223.09-4.39 225.29-4.39L225.29-4.39Q227.41-4.39 229.06-5.22 230.71-6.05 231.9-7.62L231.9-7.62 235.08-4.44Q233.83-2.56 231.33-1.04 228.83 0.49 224.92 0.49ZM261.85-26.42L261.85-21.95 246.86-21.95 246.86-26.42 261.85-26.42ZM251.11-32.89L257.17-32.89 257.17-7.45Q257.17-6.23 257.51-5.6 257.85-4.98 258.49-4.76 259.12-4.54 259.95-4.54L259.95-4.54Q260.56-4.54 261.12-4.61 261.68-4.69 262.03-4.76L262.03-4.76 262.03-0.1Q261.29 0.15 260.33 0.32 259.36 0.49 258.07 0.49L258.07 0.49Q256.04 0.49 254.47-0.24 252.89-0.98 252-2.62 251.11-4.27 251.11-7.01L251.11-7.01 251.11-32.89ZM303.91-21.24L303.91 0 297.86 0 297.86-26.42 303.62-26.42 303.91-21.24ZM311.92-26.59L311.87-20.85Q311.31-20.95 310.69-21 310.06-21.04 309.45-21.04L309.45-21.04Q307.45-21.04 306.12-20.32 304.79-19.6 304.11-18.27 303.42-16.94 303.3-15.14L303.3-15.14 301.91-15.11Q301.91-18.46 302.79-21.12 303.67-23.78 305.42-25.34 307.18-26.9 309.82-26.9L309.82-26.9Q310.33-26.9 310.97-26.81 311.6-26.71 311.92-26.59L311.92-26.59ZM331.59-26.42L331.59 0 325.54 0 325.54-26.42 331.59-26.42ZM325.15-33.33L325.15-33.33Q325.15-34.72 326.05-35.63 326.95-36.55 328.57-36.55L328.57-36.55Q330.18-36.55 331.1-35.63 332.03-34.72 332.03-33.33L332.03-33.33Q332.03-31.96 331.1-31.04 330.18-30.13 328.57-30.13L328.57-30.13Q326.95-30.13 326.05-31.04 325.15-31.96 325.15-33.33ZM358.37-4.37L358.37-4.37Q359.79-4.37 360.93-4.94 362.08-5.52 362.76-6.52 363.45-7.52 363.52-8.81L363.52-8.81 369.23-8.81Q369.16-6.2 367.7-4.1 366.23-2 363.81-0.76 361.4 0.49 358.42 0.49L358.42 0.49Q354.39 0.49 351.72-1.31 349.04-3.1 347.73-6.12 346.41-9.13 346.41-12.79L346.41-12.79 346.41-13.62Q346.41-17.29 347.73-20.3 349.04-23.32 351.72-25.11 354.39-26.9 358.42-26.9L358.42-26.9Q361.62-26.9 364.02-25.65 366.43-24.39 367.79-22.14 369.16-19.9 369.23-16.89L369.23-16.89 363.52-16.89Q363.45-18.31 362.83-19.48 362.2-20.65 361.07-21.35 359.93-22.05 358.35-22.05L358.35-22.05Q356-22.05 354.72-20.83 353.44-19.6 352.95-17.68 352.46-15.75 352.46-13.62L352.46-13.62 352.46-12.79Q352.46-10.64 352.94-8.72 353.41-6.79 354.71-5.58 356-4.37 358.37-4.37ZM389.2-37.5L389.2 0 383.15 0 383.15-37.5 389.2-37.5ZM388.15-14.16L386.2-14.14Q386.22-17.82 387.5-20.7 388.79-23.58 391.11-25.24 393.42-26.9 396.53-26.9L396.53-26.9Q399.14-26.9 401.08-25.92 403.02-24.93 404.09-22.74 405.17-20.56 405.17-16.92L405.17-16.92 405.17 0 399.09 0 399.09-16.97Q399.09-18.82 398.55-19.92 398.01-21.02 396.98-21.48 395.94-21.95 394.45-21.95L394.45-21.95Q392.89-21.95 391.72-21.35 390.54-20.75 389.74-19.68 388.93-18.6 388.54-17.19 388.15-15.77 388.15-14.16L388.15-14.16ZM454.84-26.42L454.84-21.95 439.85-21.95 439.85-26.42 454.84-26.42ZM444.1-32.89L450.15-32.89 450.15-7.45Q450.15-6.23 450.5-5.6 450.84-4.98 451.47-4.76 452.11-4.54 452.94-4.54L452.94-4.54Q453.55-4.54 454.11-4.61 454.67-4.69 455.01-4.76L455.01-4.76 455.01-0.1Q454.28 0.15 453.32 0.32 452.35 0.49 451.06 0.49L451.06 0.49Q449.03 0.49 447.46-0.24 445.88-0.98 444.99-2.62 444.1-4.27 444.1-7.01L444.1-7.01 444.1-32.89ZM467.12-12.94L467.12-13.45Q467.12-17.31 468.58-20.34 470.05-23.36 472.79-25.13 475.54-26.9 479.4-26.9L479.4-26.9Q483.3-26.9 486.06-25.13 488.82-23.36 490.27-20.34 491.73-17.31 491.73-13.45L491.73-13.45 491.73-12.94Q491.73-9.11 490.27-6.07 488.82-3.03 486.08-1.27 483.33 0.49 479.45 0.49L479.45 0.49Q475.56 0.49 472.81-1.27 470.05-3.03 468.58-6.07 467.12-9.11 467.12-12.94L467.12-12.94ZM473.17-13.45L473.17-12.94Q473.17-10.6 473.83-8.65 474.49-6.71 475.87-5.54 477.25-4.37 479.45-4.37L479.45-4.37Q481.62-4.37 483-5.54 484.38-6.71 485.03-8.65 485.67-10.6 485.67-12.94L485.67-12.94 485.67-13.45Q485.67-15.77 485.03-17.72 484.38-19.68 482.99-20.86 481.6-22.05 479.4-22.05L479.4-22.05Q477.22-22.05 475.85-20.86 474.47-19.68 473.82-17.72 473.17-15.77 473.17-13.45L473.17-13.45ZM523.07-26.42L528.59-26.42 528.59-0.76Q528.59 2.81 527.05 5.31 525.51 7.81 522.79 9.11 520.07 10.4 516.48 10.4L516.48 10.4Q514.96 10.4 513.12 9.97 511.28 9.55 509.54 8.59 507.81 7.64 506.64 6.1L506.64 6.1 509.47 2.44Q510.89 4.08 512.58 4.87 514.28 5.66 516.16 5.66L516.16 5.66Q519.12 5.66 520.81 4.03 522.51 2.39 522.51-0.66L522.51-0.66 522.51-20.41 523.07-26.42ZM505.15-12.92L505.15-13.43Q505.15-17.43 506.43-20.47 507.71-23.51 510.09-25.21 512.47-26.9 515.75-26.9L515.75-26.9Q518.33-26.9 520.16-25.96 522-25.02 523.2-23.28 524.41-21.53 525.11-19.13 525.8-16.72 526.15-13.82L526.15-13.82 526.15-12.4Q525.71-8.64 524.51-5.74 523.31-2.83 521.15-1.17 518.99 0.49 515.7 0.49L515.7 0.49Q512.47 0.49 510.11-1.26 507.74-3 506.44-6.03 505.15-9.06 505.15-12.92L505.15-12.92ZM511.2-13.43L511.2-12.92Q511.2-10.57 511.84-8.65 512.47-6.74 513.81-5.6 515.14-4.47 517.24-4.47L517.24-4.47Q519.29-4.47 520.58-5.33 521.87-6.2 522.59-7.69 523.31-9.18 523.58-11.04L523.58-11.04 523.58-15.16Q523.44-16.63 523.01-17.87 522.58-19.12 521.81-20.02 521.04-20.92 519.92-21.44 518.8-21.95 517.28-21.95L517.28-21.95Q515.18-21.95 513.84-20.81 512.5-19.68 511.85-17.74 511.2-15.8 511.2-13.43L511.2-13.43ZM555.83 0.49L555.83 0.49Q551.9 0.49 549.04-1.21 546.19-2.91 544.65-5.8 543.11-8.69 543.11-12.28L543.11-12.28 543.11-13.28Q543.11-17.41 544.67-20.47 546.23-23.54 548.96-25.22 551.68-26.9 555.12-26.9L555.12-26.9Q558.93-26.9 561.44-25.26 563.96-23.61 565.2-20.69 566.45-17.77 566.45-13.94L566.45-13.94 566.45-11.33 546.01-11.33 546.01-15.7 560.47-15.7 560.47-16.16Q560.42-17.7 559.88-19.04 559.35-20.39 558.19-21.22 557.03-22.05 555.1-22.05L555.1-22.05Q553.17-22.05 551.85-20.96 550.53-19.87 549.85-17.91 549.16-15.94 549.16-13.28L549.16-13.28 549.16-12.28Q549.16-10.03 549.99-8.25 550.82-6.47 552.41-5.43 554-4.39 556.2-4.39L556.2-4.39Q558.32-4.39 559.97-5.22 561.62-6.05 562.81-7.62L562.81-7.62 565.99-4.44Q564.74-2.56 562.24-1.04 559.74 0.49 555.83 0.49ZM592.76-26.42L592.76-21.95 577.77-21.95 577.77-26.42 592.76-26.42ZM582.02-32.89L588.08-32.89 588.08-7.45Q588.08-6.23 588.42-5.6 588.76-4.98 589.39-4.76 590.03-4.54 590.86-4.54L590.86-4.54Q591.47-4.54 592.03-4.61 592.59-4.69 592.93-4.76L592.93-4.76 592.93-0.1Q592.2 0.15 591.24 0.32 590.27 0.49 588.98 0.49L588.98 0.49Q586.95 0.49 585.38-0.24 583.8-0.98 582.91-2.62 582.02-4.27 582.02-7.01L582.02-7.01 582.02-32.89ZM612.73-37.5L612.73 0 606.68 0 606.68-37.5 612.73-37.5ZM611.68-14.16L609.73-14.14Q609.75-17.82 611.03-20.7 612.31-23.58 614.63-25.24 616.95-26.9 620.05-26.9L620.05-26.9Q622.67-26.9 624.61-25.92 626.55-24.93 627.62-22.74 628.7-20.56 628.7-16.92L628.7-16.92 628.7 0 622.62 0 622.62-16.97Q622.62-18.82 622.08-19.92 621.54-21.02 620.51-21.48 619.47-21.95 617.98-21.95L617.98-21.95Q616.42-21.95 615.24-21.35 614.07-20.75 613.27-19.68 612.46-18.6 612.07-17.19 611.68-15.77 611.68-14.16L611.68-14.16ZM655.84 0.49L655.84 0.49Q651.91 0.49 649.05-1.21 646.2-2.91 644.66-5.8 643.12-8.69 643.12-12.28L643.12-12.28 643.12-13.28Q643.12-17.41 644.68-20.47 646.25-23.54 648.97-25.22 651.69-26.9 655.13-26.9L655.13-26.9Q658.94-26.9 661.46-25.26 663.97-23.61 665.22-20.69 666.46-17.77 666.46-13.94L666.46-13.94 666.46-11.33 646.03-11.33 646.03-15.7 660.48-15.7 660.48-16.16Q660.43-17.7 659.89-19.04 659.36-20.39 658.2-21.22 657.04-22.05 655.11-22.05L655.11-22.05Q653.18-22.05 651.86-20.96 650.54-19.87 649.86-17.91 649.18-15.94 649.18-13.28L649.18-13.28 649.18-12.28Q649.18-10.03 650.01-8.25 650.84-6.47 652.42-5.43 654.01-4.39 656.21-4.39L656.21-4.39Q658.33-4.39 659.98-5.22 661.63-6.05 662.82-7.62L662.82-7.62 666-4.44Q664.75-2.56 662.25-1.04 659.75 0.49 655.84 0.49ZM686.6-21.24L686.6 0 680.54 0 680.54-26.42 686.31-26.42 686.6-21.24ZM694.61-26.59L694.56-20.85Q694-20.95 693.37-21 692.75-21.04 692.14-21.04L692.14-21.04Q690.14-21.04 688.81-20.32 687.48-19.6 686.79-18.27 686.11-16.94 685.99-15.14L685.99-15.14 684.6-15.11Q684.6-18.46 685.48-21.12 686.35-23.78 688.11-25.34 689.87-26.9 692.51-26.9L692.51-26.9Q693.02-26.9 693.65-26.81 694.29-26.71 694.61-26.59L694.61-26.59ZM714.82-35.55L714.18-10.57 709.03-10.57 708.4-35.55 714.82-35.55ZM708.22-2.91L708.22-2.91Q708.22-4.3 709.14-5.24 710.06-6.18 711.67-6.18L711.67-6.18Q713.28-6.18 714.19-5.24 715.11-4.3 715.11-2.91L715.11-2.91Q715.11-1.54 714.19-0.6 713.28 0.34 711.67 0.34L711.67 0.34Q710.06 0.34 709.14-0.6 708.22-1.54 708.22-2.91Z" opacity="1" transform="matrix(1,0,0,1,0,0)" fill="#adbfb8" class="undefined-text-1" data-fill-palette-color="secondary" id="text-1"></path></svg></g></svg></g></svg></g></svg></g><g></g></svg></g></svg></g></svg></g></svg></g><defs></defs></svg><rect width="395.52" height="247.2" fill="none" stroke="none" visibility="hidden"></rect></g></svg></g></svg>